<?xml version="1.0" encoding="UTF-8"?>
<!DOCTYPE svg PUBLIC "-//W3C//DTD SVG 1.1//EN" "http://www.w3.org/Graphics/SVG/1.1/DTD/svg11.dtd">
<svg xmlns="http://www.w3.org/2000/svg" version="1.1" width="174px" height="116px" style="shape-rendering:geometricPrecision; text-rendering:geometricPrecision; image-rendering:optimizeQuality; fill-rule:evenodd; clip-rule:evenodd" xmlns:xlink="http://www.w3.org/1999/xlink">
<g><path style="opacity:0.915" fill="#f2652a" d="M -0.5,94.5 C -0.5,92.8333 -0.5,91.1667 -0.5,89.5C -0.19822,85.9997 1.46845,83.1663 4.5,81C 25.8333,63 47.1667,45 68.5,27C 72.6996,25.6326 77.0329,25.1326 81.5,25.5C 77.6805,48.2641 73.3472,70.9307 68.5,93.5C 66.3333,93.8333 64.1667,94.1667 62,94.5C 59.2997,94.6091 56.7997,94.1091 54.5,93C 57.3514,79.9101 60.0181,66.7434 62.5,53.5C 62.1667,52.8333 61.8333,52.1667 61.5,51.5C 44.3539,65.4783 27.3539,79.645 10.5,94C 6.84841,94.4986 3.18174,94.6653 -0.5,94.5 Z"/></g>
<g><path style="opacity:0.947" fill="#f2652a" d="M 95.5,26.5 C 96.8333,26.5 98.1667,26.5 99.5,26.5C 99.5,49.5 99.5,72.5 99.5,95.5C 98.1667,95.5 96.8333,95.5 95.5,95.5C 95.5,72.5 95.5,49.5 95.5,26.5 Z"/></g>
<g><path style="opacity:0.964" fill="#f2652a" d="M 123.5,26.5 C 126.5,26.5 129.5,26.5 132.5,26.5C 132.5,34.1667 132.5,41.8333 132.5,49.5C 129.5,49.5 126.5,49.5 123.5,49.5C 123.5,41.8333 123.5,34.1667 123.5,26.5 Z"/></g>
<g><path style="opacity:0.964" fill="#f2652a" d="M 148.5,26.5 C 151.5,26.5 154.5,26.5 157.5,26.5C 157.5,34.1667 157.5,41.8333 157.5,49.5C 154.5,49.5 151.5,49.5 148.5,49.5C 148.5,41.8333 148.5,34.1667 148.5,26.5 Z"/></g>
<g><path style="opacity:0.958" fill="#f2652a" d="M 110.5,52.5 C 130.167,52.5 149.833,52.5 169.5,52.5C 166.716,69.1157 156.882,77.7823 140,78.5C 123.118,77.7823 113.284,69.1157 110.5,52.5 Z"/></g>
<g><path style="opacity:0.937" fill="#f2652a" d="M 134.5,79.5 C 138.833,79.5 143.167,79.5 147.5,79.5C 147.5,84.8333 147.5,90.1667 147.5,95.5C 143.167,95.5 138.833,95.5 134.5,95.5C 134.5,90.1667 134.5,84.8333 134.5,79.5 Z"/></g>
</svg>
